{"layers": [{"y": 0, "number": 0, "lock": false, "id": "L0", "label": ""}, {"y": 0, "number": 1, "lock": false, "id": "L1", "label": ""}, {"y": 0, "number": 2, "lock": false, "id": "L2", "label": ""}, {"y": 0, "number": 3, "lock": false, "id": "L3", "label": ""}, {"y": 0, "number": 4, "lock": false, "id": "L4", "label": ""}], "scale": 7, "progress": [], "id": "T0", "settings": {}, "channels": 2, "sample_rate": 44100, "files": [{"audio_timebase": {"num": 1, "den": 48000}, "acodec": "aac", "path": "carrots.mp4", "type": "FFmpegReader", "has_audio": true, "pixel_ratio": {"num": 1, "den": 1}, "media_type": "video", "duration": 9.04631233215332, "height": 1080, "top_field_first": true, "has_video": true, "video_length": "272", "has_single_image": false, "pixel_format": 12, "display_ratio": {"num": 16, "den": 9}, "id": "8ZZJTFQ0JR", "channels": 2, "vcodec": "h264", "sample_rate": 48000, "audio_bit_rate": 155615, "video_timebase": {"num": 1, "den": 90000}, "interlaced_frame": false, "channel_layout": 3, "width": 1920, "audio_stream_index": 1, "video_bit_rate": 17544796, "fps": {"num": 340000, "den": 11331}, "video_stream_index": 0, "file_size": "19880447"}, {"audio_timebase": {"num": 1, "den": 48000}, "acodec": "aac", "path": "cookies & rice.mp4", "type": "FFmpegReader", "has_audio": true, "pixel_ratio": {"num": 1, "den": 1}, "media_type": "video", "duration": 13.40485382080078, "height": 1080, "top_field_first": true, "has_video": true, "video_length": "403", "has_single_image": false, "pixel_format": 12, "display_ratio": {"num": 16, "den": 9}, "id": "D4C4J23O2V", "channels": 2, "vcodec": "h264", "sample_rate": 48000, "audio_bit_rate": 155912, "video_timebase": {"num": 1, "den": 90000}, "interlaced_frame": false, "channel_layout": 3, "width": 1920, "audio_stream_index": 1, "video_bit_rate": 17368735, "fps": {"num": 2790000, "den": 92981}, "video_stream_index": 0, "file_size": "29159935"}, {"audio_timebase": {"num": 1, "den": 48000}, "acodec": "aac", "path": "driving.mp4", "type": "FFmpegReader", "has_audio": true, "pixel_ratio": {"num": 1, "den": 1}, "media_type": "video", "duration": 28.84266662597656, "height": 1080, "top_field_first": true, "has_video": true, "video_length": "866", "has_single_image": false, "pixel_format": 12, "display_ratio": {"num": 16, "den": 9}, "id": "UZUI1SWC5M", "channels": 2, "vcodec": "h264", "sample_rate": 48000, "audio_bit_rate": 156003, "video_timebase": {"num": 1, "den": 90000}, "interlaced_frame": false, "channel_layout": 3, "width": 1920, "audio_stream_index": 1, "video_bit_rate": 17236420, "fps": {"num": 77940000, "den": 2597999}, "video_stream_index": 0, "file_size": "62182540"}, {"audio_timebase": {"num": 1, "den": 48000}, "acodec": "aac", "path": "fruit & meat.mp4", "type": "FFmpegReader", "has_audio": true, "pixel_ratio": {"num": 1, "den": 1}, "media_type": "video", "duration": 12.82185459136963, "height": 1080, "top_field_first": true, "has_video": true, "video_length": "385", "has_single_image": false, "pixel_format": 12, "display_ratio": {"num": 16, "den": 9}, "id": "NCI8RFOFXU", "channels": 2, "vcodec": "h264", "sample_rate": 48000, "audio_bit_rate": 155734, "video_timebase": {"num": 1, "den": 90000}, "interlaced_frame": false, "channel_layout": 3, "width": 1920, "audio_stream_index": 1, "video_bit_rate": 17396636, "fps": {"num": 11550000, "den": 384929}, "video_stream_index": 0, "file_size": "27902031"}, {"audio_timebase": {"num": 1, "den": 48000}, "acodec": "aac", "path": "knicknacks.mp4", "type": "FFmpegReader", "has_audio": true, "pixel_ratio": {"num": 1, "den": 1}, "media_type": "video", "duration": 13.19993782043457, "height": 1080, "top_field_first": true, "has_video": true, "video_length": "397", "has_single_image": false, "pixel_format": 12, "display_ratio": {"num": 16, "den": 9}, "id": "UEDNUOEYDN", "channels": 2, "vcodec": "h264", "sample_rate": 48000, "audio_bit_rate": 155559, "video_timebase": {"num": 1, "den": 90000}, "interlaced_frame": false, "channel_layout": 3, "width": 1920, "audio_stream_index": 1, "video_bit_rate": 17465309, "fps": {"num": 35730000, "den": 1190759}, "video_stream_index": 0, "file_size": "28885439"}, {"audio_timebase": {"num": 1, "den": 48000}, "acodec": "aac", "path": "more meat.mp4", "type": "FFmpegReader", "has_audio": true, "pixel_ratio": {"num": 1, "den": 1}, "media_type": "video", "duration": 10.66874980926514, "height": 1080, "top_field_first": true, "has_video": true, "video_length": "320", "has_single_image": false, "pixel_format": 12, "display_ratio": {"num": 16, "den": 9}, "id": "BLGTA0HMX3", "channels": 2, "vcodec": "h264", "sample_rate": 48000, "audio_bit_rate": 155657, "video_timebase": {"num": 1, "den": 90000}, "interlaced_frame": false, "channel_layout": 3, "width": 1920, "audio_stream_index": 1, "video_bit_rate": 17394545, "fps": {"num": 14400000, "den": 479899}, "video_stream_index": 0, "file_size": "23189103"}, {"audio_timebase": {"num": 1, "den": 48000}, "acodec": "aac", "path": "plants.mp4", "type": "FFmpegReader", "has_audio": true, "pixel_ratio": {"num": 1, "den": 1}, "media_type": "video", "duration": 8.788999557495117, "height": 1080, "top_field_first": true, "has_video": true, "video_length": "264", "has_single_image": false, "pixel_format": 12, "display_ratio": {"num": 16, "den": 9}, "id": "UKH2X46ER4", "channels": 2, "vcodec": "h264", "sample_rate": 48000, "audio_bit_rate": 155627, "video_timebase": {"num": 1, "den": 90000}, "interlaced_frame": false, "channel_layout": 3, "width": 1920, "audio_stream_index": 1, "video_bit_rate": 17430811, "fps": {"num": 2970000, "den": 98981}, "video_stream_index": 0, "file_size": "19169535"}, {"audio_timebase": {"num": 1, "den": 48000}, "acodec": "aac", "path": "storefront.mp4", "type": "FFmpegReader", "has_audio": true, "pixel_ratio": {"num": 1, "den": 1}, "media_type": "video", "duration": 17.46500015258789, "height": 1080, "top_field_first": true, "has_video": true, "video_length": "524", "has_single_image": false, "pixel_format": 12, "display_ratio": {"num": 16, "den": 9}, "id": "08VXGJN2F6", "channels": 2, "vcodec": "h264", "sample_rate": 48000, "audio_bit_rate": 155902, "video_timebase": {"num": 1, "den": 90000}, "interlaced_frame": false, "channel_layout": 3, "width": 1920, "audio_stream_index": 1, "video_bit_rate": 17401147, "fps": {"num": 9432000, "den": 314339}, "video_stream_index": 0, "file_size": "37984529"}, {"audio_timebase": {"num": 1, "den": 1}, "acodec": "", "path": "assets\\TitleFileName-1.svg", "type": "QtImageReader", "has_audio": false, "pixel_ratio": {"num": 1, "den": 1}, "media_type": "image", "duration": 86400.0, "height": 1080, "top_field_first": true, "has_video": true, "video_length": "2592000", "has_single_image": true, "pixel_format": -1, "display_ratio": {"num": 16, "den": 9}, "id": "HKDPZNKEW2", "channels": 0, "vcodec": "", "sample_rate": 0, "audio_bit_rate": 0, "video_timebase": {"num": 1, "den": 30}, "interlaced_frame": false, "channel_layout": 4, "width": 1920, "audio_stream_index": -1, "video_bit_rate": 0, "fps": {"num": 30, "den": 1}, "video_stream_index": -1, "file_size": "8294400"}, {"audio_timebase": {"num": 1, "den": 1}, "acodec": "", "path": "assets\\TitleFileName-2.svg", "type": "QtImageReader", "has_audio": false, "pixel_ratio": {"num": 1, "den": 1}, "media_type": "image", "duration": 86400.0, "height": 1080, "top_field_first": true, "has_video": true, "video_length": "2592000", "has_single_image": true, "pixel_format": -1, "display_ratio": {"num": 16, "den": 9}, "id": "VSVBXAYUOF", "channels": 0, "vcodec": "", "sample_rate": 0, "audio_bit_rate": 0, "video_timebase": {"num": 1, "den": 30}, "interlaced_frame": false, "channel_layout": 4, "width": 1920, "audio_stream_index": -1, "video_bit_rate": 0, "fps": {"num": 30, "den": 1}, "video_stream_index": -1, "file_size": "8294400"}], "duration": 300, "effects": [{"end": 10, "reader": {"audio_timebase": {"num": 1, "den": 1}, "acodec": "", "path": "@transitions\\extra\\wipe_diagonal_1.jpg", "type": "QtImageReader", "has_audio": false, "pixel_ratio": {"num": 1, "den": 1}, "video_stream_index": -1, "duration": 86400.0, "height": 1080, "top_field_first": true, "video_length": "2592000", "has_single_image": true, "pixel_format": -1, "display_ratio": {"num": 16, "den": 9}, "vcodec": "", "channels": 0, "sample_rate": 0, "audio_bit_rate": 0, "video_timebase": {"num": 1, "den": 30}, "interlaced_frame": false, "channel_layout": 4, "width": 1920, "audio_stream_index": -1, "video_bit_rate": 0, "fps": {"num": 30, "den": 1}, "has_video": true, "file_size": "8294400"}, "start": 0, "title": "Transition", "contrast": {"Points": [{"interpolation": 2, "co": {"X": 1, "Y": 3}}]}, "replace_image": false, "id": "5ZVT1JDFHS", "position": 8.973125, "layer": 3, "brightness": {"Points": [{"handle_left": {"X": 0.5, "Y": 1}, "interpolation": 0, "co": {"X": 1, "Y": 1}, "handle_type": 0, "handle_right": {"X": 0.5, "Y": 0}}, {"handle_left": {"X": 0.5, "Y": 1}, "interpolation": 0, "co": {"X": 241, "Y": -1}, "handle_type": 0, "handle_right": {"X": 0.5, "Y": 0}}]}, "type": "Mask"}, {"reader": {"audio_timebase": {"num": 1, "den": 1}, "acodec": "", "path": "@transitions\\common\\fade.svg", "type": "QtImageReader", "has_audio": false, "pixel_ratio": {"num": 1, "den": 1}, "video_stream_index": -1, "duration": 86400.0, "height": 576, "top_field_first": true, "video_length": "2592000", "has_single_image": true, "pixel_format": -1, "display_ratio": {"num": 5, "den": 4}, "vcodec": "", "channels": 0, "sample_rate": 0, "audio_bit_rate": 0, "video_timebase": {"num": 1, "den": 30}, "interlaced_frame": false, "channel_layout": 4, "width": 720, "audio_stream_index": -1, "video_bit_rate": 0, "fps": {"num": 30, "den": 1}, "has_video": true, "file_size": "1658880"}, "contrast": {"Points": [{"interpolation": 2, "co": {"X": 1.0, "Y": 3.0}}]}, "replace_image": false, "id": "OLQQL2WQWA", "layer": 3, "position": 20.127187499999998, "start": 0, "type": "Mask", "brightness": {"Points": [{"handle_left": {"X": 0.5, "Y": 1.0}, "interpolation": 0, "co": {"X": 1.0, "Y": 1.0}, "handle_type": 0, "handle_right": {"X": 0.5, "Y": 0.0}}, {"handle_left": {"X": 0.5, "Y": 1.0}, "interpolation": 0, "co": {"X": 44.0, "Y": -1.0}, "handle_type": 0, "handle_right": {"X": 0.5, "Y": 0.0}}]}, "end": 1.785270792643228, "title": "Transition"}, {"end": 10, "reader": {"audio_timebase": {"num": 1, "den": 1}, "acodec": "", "path": "@transitions\\extra\\triangle_1.jpg", "type": "QtImageReader", "has_audio": false, "pixel_ratio": {"num": 1, "den": 1}, "video_stream_index": -1, "duration": 86400.0, "height": 1080, "top_field_first": true, "video_length": "2592000", "has_single_image": true, "pixel_format": -1, "display_ratio": {"num": 16, "den": 9}, "vcodec": "", "channels": 0, "sample_rate": 0, "audio_bit_rate": 0, "video_timebase": {"num": 1, "den": 30}, "interlaced_frame": false, "channel_layout": 4, "width": 1920, "audio_stream_index": -1, "video_bit_rate": 0, "fps": {"num": 30, "den": 1}, "has_video": true, "file_size": "8294400"}, "start": 0, "title": "Transition", "contrast": {"Points": [{"interpolation": 2, "co": {"X": 1, "Y": 3}}]}, "replace_image": false, "id": "7JQYMBGW31", "position": 87.7778125, "layer": 4, "brightness": {"Points": [{"handle_left": {"X": 0.5, "Y": 1}, "interpolation": 0, "co": {"X": 1, "Y": 1}, "handle_type": 0, "handle_right": {"X": 0.5, "Y": 0}}, {"handle_left": {"X": 0.5, "Y": 1}, "interpolation": 0, "co": {"X": 241, "Y": -1}, "handle_type": 0, "handle_right": {"X": 0.5, "Y": 0}}]}, "type": "Mask"}], "export_path": "", "channel_layout": 3, "playhead_position": 0, "clips": [{"alpha": {"Points": [{"interpolation": 2, "co": {"X": 1.0, "Y": 1.0}}, {"handle_left": {"X": 0.5, "Y": 1.0}, "interpolation": 0, "co": {"X": 1.0, "Y": 0.0}, "handle_type": 0, "handle_right": {"X": 0.5, "Y": 0.0}}, {"handle_left": {"X": 0.5, "Y": 1.0}, "interpolation": 0, "co": {"X": 73.0, "Y": 1.0}, "handle_type": 0, "handle_right": {"X": 0.5, "Y": 0.0}}, {"interpolation": 0, "handle_left": {"X": 0.5, "Y": 1.0}, "handle_type": 0, "co": {"X": 383.0, "Y": 0.0}, "handle_right": {"X": 0.5, "Y": 0.0}}, {"interpolation": 0, "handle_left": {"X": 0.5, "Y": 1.0}, "handle_type": 0, "co": {"X": 407.0, "Y": 1.0}, "handle_right": {"X": 0.5, "Y": 0.0}}]}, "effects": [], "volume": {"Points": [{"interpolation": 2, "co": {"X": 1.0, "Y": 1.0}}, {"handle_left": {"X": 0.5, "Y": 1.0}, "interpolation": 0, "co": {"X": 1.0, "Y": 0.0}, "handle_type": 0, "handle_right": {"X": 0.5, "Y": 0.0}}]}, "duration": 28.84266662597656, "reader": {"audio_timebase": {"num": 1, "den": 48000}, "acodec": "aac", "path": "driving.mp4", "has_audio": true, "pixel_ratio": {"num": 1, "den": 1}, "video_stream_index": 0, "duration": 28.84266662597656, "top_field_first": true, "video_length": "866", "has_single_image": false, "file_size": "62182540", "width": 1920, "pixel_format": 12, "display_ratio": {"num": 16, "den": 9}, "fps": {"num": 77940000, "den": 2597999}, "vcodec": "h264", "sample_rate": 48000, "audio_bit_rate": 156003, "video_timebase": {"num": 1, "den": 90000}, "interlaced_frame": false, "channel_layout": 3, "channels": 2, "audio_stream_index": 1, "video_bit_rate": 17236420, "height": 1080, "has_video": true, "type": "FFmpegReader"}, "shear_y": {"Points": [{"interpolation": 2, "co": {"X": 1.0, "Y": 0.0}}]}, "rotation": {"Points": [{"interpolation": 2, "co": {"X": 1.0, "Y": 0.0}}]}, "start": 15.903333333333332, "perspective_c4_x": {"Points": [{"interpolation": 2, "co": {"X": 1.0, "Y": -1.0}}]}, "channel_filter": {"Points": [{"interpolation": 2, "co": {"X": 1.0, "Y": -1.0}}]}, "perspective_c4_y": {"Points": [{"interpolation": 2, "co": {"X": 1.0, "Y": -1.0}}]}, "gravity": 4, "crop_height": {"Points": [{"interpolation": 2, "co": {"X": 1.0, "Y": -1.0}}]}, "shear_x": {"Points": [{"interpolation": 2, "co": {"X": 1.0, "Y": 0.0}}]}, "crop_width": {"Points": [{"interpolation": 2, "co": {"X": 1.0, "Y": -1.0}}]}, "display": 0, "anchor": 0, "crop_x": {"Points": [{"interpolation": 2, "co": {"X": 1.0, "Y": 0.0}}]}, "location_y": {"Points": [{"interpolation": 2, "co": {"X": 1.0, "Y": 0.0}}]}, "time": {"Points": [{"interpolation": 2, "co": {"X": 1.0, "Y": 0.0}}]}, "has_audio": {"Points": [{"interpolation": 2, "co": {"X": 1.0, "Y": 0.0}}]}, "perspective_c3_y": {"Points": [{"interpolation": 2, "co": {"X": 1.0, "Y": -1.0}}]}, "perspective_c3_x": {"Points": [{"interpolation": 2, "co": {"X": 1.0, "Y": -1.0}}]}, "perspective_c1_y": {"Points": [{"interpolation": 2, "co": {"X": 1.0, "Y": -1.0}}]}, "perspective_c2_y": {"Points": [{"interpolation": 2, "co": {"X": 1.0, "Y": -1.0}}]}, "waveform": false, "wave_color": {"blue": {"Points": [{"handle_left": {"X": 0.5, "Y": 1.0}, "interpolation": 0, "co": {"X": 1.0, "Y": 255.0}, "handle_type": 0, "handle_right": {"X": 0.5, "Y": 0.0}}]}, "red": {"Points": [{"handle_left": {"X": 0.5, "Y": 1.0}, "interpolation": 0, "co": {"X": 1.0, "Y": 0.0}, "handle_type": 0, "handle_right": {"X": 0.5, "Y": 0.0}}]}, "alpha": {"Points": [{"handle_left": {"X": 0.5, "Y": 1.0}, "interpolation": 0, "co": {"X": 1.0, "Y": 255.0}, "handle_type": 0, "handle_right": {"X": 0.5, "Y": 0.0}}]}, "green": {"Points": [{"handle_left": {"X": 0.5, "Y": 1.0}, "interpolation": 0, "co": {"X": 1.0, "Y": 123.0}, "handle_type": 0, "handle_right": {"X": 0.5, "Y": 0.0}}]}}, "end": 28.84266662597656, "crop_y": {"Points": [{"interpolation": 2, "co": {"X": 1.0, "Y": 0.0}}]}, "title": "driving.mp4", "scale_y": {"Points": [{"interpolation": 2, "co": {"X": 1.0, "Y": 1.0}}]}, "scale": 1, "channel_mapping": {"Points": [{"interpolation": 2, "co": {"X": 1.0, "Y": -1.0}}]}, "id": "DGNFLFTPGL", "file_id": "UZUI1SWC5M", "position": 8.973125, "perspective_c2_x": {"Points": [{"interpolation": 2, "co": {"X": 1.0, "Y": -1.0}}]}, "scale_x": {"Points": [{"interpolation": 2, "co": {"X": 1.0, "Y": 1.0}}]}, "location_x": {"Points": [{"interpolation": 2, "co": {"X": 1.0, "Y": 0.0}}]}, "perspective_c1_x": {"Points": [{"interpolation": 2, "co": {"X": 1.0, "Y": -1.0}}]}, "layer": 3, "image": "..\\..\\..\\..\\..\\..\\..\\.openshot_qt\\thumbnail\\DGNFLFTPGL-478.png", "has_video": {"Points": [{"interpolation": 2, "co": {"X": 1.0, "Y": -1.0}}]}}, {"alpha": {"Points": [{"interpolation": 2, "co": {"X": 1.0, "Y": 1.0}}, {"handle_left": {"X": 0.5, "Y": 1.0}, "interpolation": 0, "co": {"X": 1.0, "Y": 0.0}, "handle_type": 0, "handle_right": {"X": 0.5, "Y": 0.0}}, {"handle_left": {"X": 0.5, "Y": 1.0}, "interpolation": 0, "co": {"X": 73.0, "Y": 1.0}, "handle_type": 0, "handle_right": {"X": 0.5, "Y": 0.0}}]}, "effects": [], "volume": {"Points": [{"interpolation": 2, "co": {"X": 1.0, "Y": 1.0}}, {"handle_left": {"X": 0.5, "Y": 1.0}, "interpolation": 0, "co": {"X": 1.0, "Y": 0.0}, "handle_type": 0, "handle_right": {"X": 0.5, "Y": 0.0}}, {"handle_left": {"X": 0.5, "Y": 1.0}, "interpolation": 0, "co": {"X": 1.0, "Y": 0.0}, "handle_type": 0, "handle_right": {"X": 0.5, "Y": 0.0}}]}, "duration": 17.46500015258789, "reader": {"audio_timebase": {"num": 1, "den": 48000}, "acodec": "aac", "path": "storefront.mp4", "type": "FFmpegReader", "has_audio": true, "pixel_ratio": {"num": 1, "den": 1}, "video_stream_index": 0, "duration": 17.46500015258789, "height": 1080, "top_field_first": true, "video_length": "524", "has_single_image": false, "pixel_format": 12, "display_ratio": {"num": 16, "den": 9}, "vcodec": "h264", "channels": 2, "sample_rate": 48000, "audio_bit_rate": 155902, "video_timebase": {"num": 1, "den": 90000}, "interlaced_frame": false, "channel_layout": 3, "width": 1920, "audio_stream_index": 1, "video_bit_rate": 17401147, "fps": {"num": 9432000, "den": 314339}, "has_video": true, "file_size": "37984529"}, "shear_y": {"Points": [{"interpolation": 2, "co": {"X": 1.0, "Y": 0.0}}]}, "rotation": {"Points": [{"interpolation": 2, "co": {"X": 1.0, "Y": 0.0}}]}, "start": 0, "perspective_c4_x": {"Points": [{"interpolation": 2, "co": {"X": 1.0, "Y": -1.0}}]}, "channel_filter": {"Points": [{"interpolation": 2, "co": {"X": 1.0, "Y": -1.0}}]}, "perspective_c4_y": {"Points": [{"interpolation": 2, "co": {"X": 1.0, "Y": -1.0}}]}, "gravity": 4, "crop_height": {"Points": [{"interpolation": 2, "co": {"X": 1.0, "Y": -1.0}}]}, "shear_x": {"Points": [{"interpolation": 2, "co": {"X": 1.0, "Y": 0.0}}]}, "crop_width": {"Points": [{"interpolation": 2, "co": {"X": 1.0, "Y": -1.0}}]}, "display": 0, "anchor": 0, "crop_x": {"Points": [{"interpolation": 2, "co": {"X": 1.0, "Y": 0.0}}]}, "location_y": {"Points": [{"interpolation": 2, "co": {"X": 1.0, "Y": 0.0}}]}, "time": {"Points": [{"interpolation": 2, "co": {"X": 1.0, "Y": 0.0}}]}, "has_audio": {"Points": [{"interpolation": 2, "co": {"X": 1.0, "Y": -1.0}}]}, "perspective_c3_y": {"Points": [{"interpolation": 2, "co": {"X": 1.0, "Y": -1.0}}]}, "perspective_c3_x": {"Points": [{"interpolation": 2, "co": {"X": 1.0, "Y": -1.0}}]}, "perspective_c1_y": {"Points": [{"interpolation": 2, "co": {"X": 1.0, "Y": -1.0}}]}, "perspective_c2_y": {"Points": [{"interpolation": 2, "co": {"X": 1.0, "Y": -1.0}}]}, "waveform": false, "wave_color": {"blue": {"Points": [{"handle_left": {"X": 0.5, "Y": 1.0}, "interpolation": 0, "co": {"X": 1.0, "Y": 255.0}, "handle_type": 0, "handle_right": {"X": 0.5, "Y": 0.0}}]}, "red": {"Points": [{"handle_left": {"X": 0.5, "Y": 1.0}, "interpolation": 0, "co": {"X": 1.0, "Y": 0.0}, "handle_type": 0, "handle_right": {"X": 0.5, "Y": 0.0}}]}, "alpha": {"Points": [{"handle_left": {"X": 0.5, "Y": 1.0}, "interpolation": 0, "co": {"X": 1.0, "Y": 255.0}, "handle_type": 0, "handle_right": {"X": 0.5, "Y": 0.0}}]}, "green": {"Points": [{"handle_left": {"X": 0.5, "Y": 1.0}, "interpolation": 0, "co": {"X": 1.0, "Y": 123.0}, "handle_type": 0, "handle_right": {"X": 0.5, "Y": 0.0}}]}}, "end": 11.41447916666667, "crop_y": {"Points": [{"interpolation": 2, "co": {"X": 1.0, "Y": 0.0}}]}, "title": "storefront.mp4", "scale_y": {"Points": [{"interpolation": 2, "co": {"X": 1.0, "Y": 1.0}}]}, "scale": 1, "channel_mapping": {"Points": [{"interpolation": 2, "co": {"X": 1.0, "Y": -1.0}}]}, "id": "2Z25V1MWD2", "file_id": "08VXGJN2F6", "position": 20.127187499999998, "perspective_c2_x": {"Points": [{"interpolation": 2, "co": {"X": 1.0, "Y": -1.0}}]}, "scale_x": {"Points": [{"interpolation": 2, "co": {"X": 1.0, "Y": 1.0}}]}, "location_x": {"Points": [{"interpolation": 2, "co": {"X": 1.0, "Y": 0.0}}]}, "perspective_c1_x": {"Points": [{"interpolation": 2, "co": {"X": 1.0, "Y": -1.0}}]}, "layer": 2, "image": "..\\..\\..\\..\\..\\..\\..\\.openshot_qt\\thumbnail\\08VXGJN2F6.png", "has_video": {"Points": [{"interpolation": 2, "co": {"X": 1.0, "Y": -1.0}}]}}, {"alpha": {"Points": [{"interpolation": 2, "co": {"X": 1.0, "Y": 1.0}}, {"interpolation": 0, "handle_left": {"X": 0.5, "Y": 1.0}, "handle_type": 0, "co": {"X": 1.0, "Y": 0.0}, "handle_right": {"X": 0.5, "Y": 0.0}}, {"interpolation": 0, "handle_left": {"X": 0.5, "Y": 1.0}, "handle_type": 0, "co": {"X": 25.0, "Y": 1.0}, "handle_right": {"X": 0.5, "Y": 0.0}}]}, "effects": [], "volume": {"Points": [{"interpolation": 2, "co": {"X": 1.0, "Y": 1.0}}, {"handle_left": {"X": 0.5, "Y": 1.0}, "interpolation": 0, "co": {"X": 1.0, "Y": 0.0}, "handle_type": 0, "handle_right": {"X": 0.5, "Y": 0.0}}]}, "duration": 8.788999557495117, "reader": {"audio_timebase": {"num": 1, "den": 48000}, "acodec": "aac", "path": "plants.mp4", "type": "FFmpegReader", "has_audio": true, "pixel_ratio": {"num": 1, "den": 1}, "video_stream_index": 0, "duration": 8.788999557495117, "height": 1080, "top_field_first": true, "video_length": "264", "has_single_image": false, "pixel_format": 12, "display_ratio": {"num": 16, "den": 9}, "vcodec": "h264", "channels": 2, "sample_rate": 48000, "audio_bit_rate": 155627, "video_timebase": {"num": 1, "den": 90000}, "interlaced_frame": false, "channel_layout": 3, "width": 1920, "audio_stream_index": 1, "video_bit_rate": 17430811, "fps": {"num": 2970000, "den": 98981}, "has_video": true, "file_size": "19169535"}, "shear_y": {"Points": [{"interpolation": 2, "co": {"X": 1.0, "Y": 0.0}}]}, "rotation": {"Points": [{"interpolation": 2, "co": {"X": 1.0, "Y": 0.0}}]}, "start": 0, "perspective_c4_x": {"Points": [{"interpolation": 2, "co": {"X": 1.0, "Y": -1.0}}]}, "channel_filter": {"Points": [{"interpolation": 2, "co": {"X": 1.0, "Y": -1.0}}]}, "perspective_c4_y": {"Points": [{"interpolation": 2, "co": {"X": 1.0, "Y": -1.0}}]}, "gravity": 4, "crop_height": {"Points": [{"interpolation": 2, "co": {"X": 1.0, "Y": -1.0}}]}, "shear_x": {"Points": [{"interpolation": 2, "co": {"X": 1.0, "Y": 0.0}}]}, "crop_width": {"Points": [{"interpolation": 2, "co": {"X": 1.0, "Y": -1.0}}]}, "display": 0, "anchor": 0, "crop_x": {"Points": [{"interpolation": 2, "co": {"X": 1.0, "Y": 0.0}}]}, "location_y": {"Points": [{"interpolation": 2, "co": {"X": 1.0, "Y": 0.0}}]}, "time": {"Points": [{"interpolation": 2, "co": {"X": 1.0, "Y": 0.0}}]}, "has_audio": {"Points": [{"interpolation": 2, "co": {"X": 1.0, "Y": -1.0}}]}, "perspective_c3_y": {"Points": [{"interpolation": 2, "co": {"X": 1.0, "Y": -1.0}}]}, "perspective_c3_x": {"Points": [{"interpolation": 2, "co": {"X": 1.0, "Y": -1.0}}]}, "perspective_c1_y": {"Points": [{"interpolation": 2, "co": {"X": 1.0, "Y": -1.0}}]}, "perspective_c2_y": {"Points": [{"interpolation": 2, "co": {"X": 1.0, "Y": -1.0}}]}, "waveform": false, "wave_color": {"blue": {"Points": [{"handle_left": {"X": 0.5, "Y": 1.0}, "interpolation": 0, "co": {"X": 1.0, "Y": 255.0}, "handle_type": 0, "handle_right": {"X": 0.5, "Y": 0.0}}]}, "red": {"Points": [{"handle_left": {"X": 0.5, "Y": 1.0}, "interpolation": 0, "co": {"X": 1.0, "Y": 0.0}, "handle_type": 0, "handle_right": {"X": 0.5, "Y": 0.0}}]}, "alpha": {"Points": [{"handle_left": {"X": 0.5, "Y": 1.0}, "interpolation": 0, "co": {"X": 1.0, "Y": 255.0}, "handle_type": 0, "handle_right": {"X": 0.5, "Y": 0.0}}]}, "green": {"Points": [{"handle_left": {"X": 0.5, "Y": 1.0}, "interpolation": 0, "co": {"X": 1.0, "Y": 123.0}, "handle_type": 0, "handle_right": {"X": 0.5, "Y": 0.0}}]}}, "end": 5.541666666666664, "crop_y": {"Points": [{"interpolation": 2, "co": {"X": 1.0, "Y": 0.0}}]}, "title": "plants.mp4", "scale_y": {"Points": [{"interpolation": 2, "co": {"X": 1.0, "Y": 1.0}}]}, "scale": 1, "channel_mapping": {"Points": [{"interpolation": 2, "co": {"X": 1.0, "Y": -1.0}}]}, "id": "33KUQFKJ55", "file_id": "UKH2X46ER4", "position": 30.600937499999997, "perspective_c2_x": {"Points": [{"interpolation": 2, "co": {"X": 1.0, "Y": -1.0}}]}, "scale_x": {"Points": [{"interpolation": 2, "co": {"X": 1.0, "Y": 1.0}}]}, "location_x": {"Points": [{"interpolation": 2, "co": {"X": 1.0, "Y": 0.0}}]}, "perspective_c1_x": {"Points": [{"interpolation": 2, "co": {"X": 1.0, "Y": -1.0}}]}, "layer": 4, "image": "..\\..\\..\\..\\..\\..\\..\\.openshot_qt\\thumbnail\\UKH2X46ER4.png", "has_video": {"Points": [{"interpolation": 2, "co": {"X": 1.0, "Y": -1.0}}]}}, {"alpha": {"Points": [{"interpolation": 2, "co": {"X": 1.0, "Y": 1.0}}]}, "effects": [], "volume": {"Points": [{"interpolation": 2, "co": {"X": 1.0, "Y": 1.0}}, {"handle_left": {"X": 0.5, "Y": 1.0}, "interpolation": 0, "co": {"X": 1.0, "Y": 0.0}, "handle_type": 0, "handle_right": {"X": 0.5, "Y": 0.0}}, {"handle_left": {"X": 0.5, "Y": 1.0}, "interpolation": 0, "co": {"X": 1.0, "Y": 0.0}, "handle_type": 0, "handle_right": {"X": 0.5, "Y": 0.0}}]}, "duration": 10.66874980926514, "reader": {"audio_timebase": {"num": 1, "den": 48000}, "acodec": "aac", "path": "more meat.mp4", "has_audio": true, "pixel_ratio": {"num": 1, "den": 1}, "video_stream_index": 0, "duration": 10.66874980926514, "top_field_first": true, "video_length": "320", "has_single_image": false, "file_size": "23189103", "width": 1920, "pixel_format": 12, "display_ratio": {"num": 16, "den": 9}, "fps": {"num": 14400000, "den": 479899}, "vcodec": "h264", "sample_rate": 48000, "audio_bit_rate": 155657, "video_timebase": {"num": 1, "den": 90000}, "interlaced_frame": false, "channel_layout": 3, "channels": 2, "audio_stream_index": 1, "video_bit_rate": 17394545, "height": 1080, "has_video": true, "type": "FFmpegReader"}, "shear_y": {"Points": [{"interpolation": 2, "co": {"X": 1.0, "Y": 0.0}}]}, "rotation": {"Points": [{"interpolation": 2, "co": {"X": 1.0, "Y": 0.0}}]}, "start": 0, "perspective_c4_x": {"Points": [{"interpolation": 2, "co": {"X": 1.0, "Y": -1.0}}]}, "channel_filter": {"Points": [{"interpolation": 2, "co": {"X": 1.0, "Y": -1.0}}]}, "perspective_c4_y": {"Points": [{"interpolation": 2, "co": {"X": 1.0, "Y": -1.0}}]}, "gravity": 4, "crop_height": {"Points": [{"interpolation": 2, "co": {"X": 1.0, "Y": -1.0}}]}, "shear_x": {"Points": [{"interpolation": 2, "co": {"X": 1.0, "Y": 0.0}}]}, "crop_width": {"Points": [{"interpolation": 2, "co": {"X": 1.0, "Y": -1.0}}]}, "display": 0, "anchor": 0, "crop_x": {"Points": [{"interpolation": 2, "co": {"X": 1.0, "Y": 0.0}}]}, "location_y": {"Points": [{"interpolation": 2, "co": {"X": 1.0, "Y": 0.0}}]}, "time": {"Points": [{"interpolation": 2, "co": {"X": 1.0, "Y": 0.0}}]}, "has_audio": {"Points": [{"interpolation": 2, "co": {"X": 1.0, "Y": 0.0}}]}, "perspective_c3_y": {"Points": [{"interpolation": 2, "co": {"X": 1.0, "Y": -1.0}}]}, "perspective_c3_x": {"Points": [{"interpolation": 2, "co": {"X": 1.0, "Y": -1.0}}]}, "perspective_c1_y": {"Points": [{"interpolation": 2, "co": {"X": 1.0, "Y": -1.0}}]}, "perspective_c2_y": {"Points": [{"interpolation": 2, "co": {"X": 1.0, "Y": -1.0}}]}, "waveform": false, "wave_color": {"blue": {"Points": [{"handle_left": {"X": 0.5, "Y": 1.0}, "interpolation": 0, "co": {"X": 1.0, "Y": 255.0}, "handle_type": 0, "handle_right": {"X": 0.5, "Y": 0.0}}]}, "red": {"Points": [{"handle_left": {"X": 0.5, "Y": 1.0}, "interpolation": 0, "co": {"X": 1.0, "Y": 0.0}, "handle_type": 0, "handle_right": {"X": 0.5, "Y": 0.0}}]}, "alpha": {"Points": [{"handle_left": {"X": 0.5, "Y": 1.0}, "interpolation": 0, "co": {"X": 1.0, "Y": 255.0}, "handle_type": 0, "handle_right": {"X": 0.5, "Y": 0.0}}]}, "green": {"Points": [{"handle_left": {"X": 0.5, "Y": 1.0}, "interpolation": 0, "co": {"X": 1.0, "Y": 123.0}, "handle_type": 0, "handle_right": {"X": 0.5, "Y": 0.0}}]}}, "end": 10.66874980926514, "crop_y": {"Points": [{"interpolation": 2, "co": {"X": 1.0, "Y": 0.0}}]}, "title": "more meat.mp4", "scale_y": {"Points": [{"interpolation": 2, "co": {"X": 1.0, "Y": 1.0}}]}, "scale": 1, "channel_mapping": {"Points": [{"interpolation": 2, "co": {"X": 1.0, "Y": -1.0}}]}, "id": "7GQSHQZ50P", "file_id": "BLGTA0HMX3", "position": 37.0409375, "perspective_c2_x": {"Points": [{"interpolation": 2, "co": {"X": 1.0, "Y": -1.0}}]}, "scale_x": {"Points": [{"interpolation": 2, "co": {"X": 1.0, "Y": 1.0}}]}, "location_x": {"Points": [{"interpolation": 2, "co": {"X": 1.0, "Y": 0.0}}]}, "perspective_c1_x": {"Points": [{"interpolation": 2, "co": {"X": 1.0, "Y": -1.0}}]}, "layer": 3, "image": "..\\..\\..\\..\\..\\..\\..\\.openshot_qt\\thumbnail\\BLGTA0HMX3.png", "has_video": {"Points": [{"interpolation": 2, "co": {"X": 1.0, "Y": -1.0}}]}}, {"alpha": {"Points": [{"interpolation": 2, "co": {"X": 1.0, "Y": 1.0}}, {"handle_left": {"X": 0.5, "Y": 1.0}, "interpolation": 0, "co": {"X": 1.0, "Y": 0.0}, "handle_type": 0, "handle_right": {"X": 0.5, "Y": 0.0}}, {"handle_left": {"X": 0.5, "Y": 1.0}, "interpolation": 0, "co": {"X": 25.0, "Y": 1.0}, "handle_type": 0, "handle_right": {"X": 0.5, "Y": 0.0}}]}, "effects": [{"has_audio": false, "order": 0, "id": "5Q2WQZOQFB", "position": 0.0, "class_name": "Saturation", "short_name": "", "duration": 0.0, "saturation": {"Points": [{"interpolation": 2, "co": {"X": 1.0, "Y": 1.0}}]}, "end": 0.0, "layer": 0, "name": "Color Saturation", "start": 0.0, "type": "Saturation", "has_video": true, "description": "Adjust the color saturation."}], "volume": {"Points": [{"interpolation": 2, "co": {"X": 1.0, "Y": 0.0}}]}, "duration": 9.04631233215332, "reader": {"audio_timebase": {"num": 1, "den": 48000}, "acodec": "aac", "path": "carrots.mp4", "type": "FFmpegReader", "has_audio": true, "pixel_ratio": {"num": 1, "den": 1}, "video_stream_index": 0, "duration": 9.04631233215332, "height": 1080, "top_field_first": true, "video_length": "272", "has_single_image": false, "pixel_format": 12, "display_ratio": {"num": 16, "den": 9}, "vcodec": "h264", "channels": 2, "sample_rate": 48000, "audio_bit_rate": 155615, "video_timebase": {"num": 1, "den": 90000}, "interlaced_frame": false, "channel_layout": 3, "width": 1920, "audio_stream_index": 1, "video_bit_rate": 17544796, "fps": {"num": 340000, "den": 11331}, "has_video": true, "file_size": "19880447"}, "shear_y": {"Points": [{"interpolation": 2, "co": {"X": 1.0, "Y": 0.0}}]}, "rotation": {"Points": [{"interpolation": 2, "co": {"X": 1.0, "Y": 0.0}}]}, "start": 0, "perspective_c4_x": {"Points": [{"interpolation": 2, "co": {"X": 1.0, "Y": -1.0}}]}, "channel_filter": {"Points": [{"interpolation": 2, "co": {"X": 1.0, "Y": -1.0}}]}, "perspective_c4_y": {"Points": [{"interpolation": 2, "co": {"X": 1.0, "Y": -1.0}}]}, "gravity": 4, "crop_height": {"Points": [{"interpolation": 2, "co": {"X": 1.0, "Y": -1.0}}]}, "shear_x": {"Points": [{"interpolation": 2, "co": {"X": 1.0, "Y": 0.0}}]}, "crop_width": {"Points": [{"interpolation": 2, "co": {"X": 1.0, "Y": -1.0}}]}, "display": 0, "anchor": 0, "crop_x": {"Points": [{"interpolation": 2, "co": {"X": 1.0, "Y": 0.0}}]}, "location_y": {"Points": [{"interpolation": 2, "co": {"X": 1.0, "Y": 0.0}}]}, "time": {"Points": [{"interpolation": 2, "co": {"X": 1.0, "Y": 0.0}}]}, "has_audio": {"Points": [{"interpolation": 2, "co": {"X": 1.0, "Y": -1.0}}]}, "perspective_c3_y": {"Points": [{"interpolation": 2, "co": {"X": 1.0, "Y": -1.0}}]}, "perspective_c3_x": {"Points": [{"interpolation": 2, "co": {"X": 1.0, "Y": -1.0}}]}, "perspective_c1_y": {"Points": [{"interpolation": 2, "co": {"X": 1.0, "Y": -1.0}}]}, "perspective_c2_y": {"Points": [{"interpolation": 2, "co": {"X": 1.0, "Y": -1.0}}]}, "waveform": false, "wave_color": {"blue": {"Points": [{"handle_left": {"X": 0.5, "Y": 1.0}, "interpolation": 0, "co": {"X": 1.0, "Y": 255.0}, "handle_type": 0, "handle_right": {"X": 0.5, "Y": 0.0}}]}, "red": {"Points": [{"handle_left": {"X": 0.5, "Y": 1.0}, "interpolation": 0, "co": {"X": 1.0, "Y": 0.0}, "handle_type": 0, "handle_right": {"X": 0.5, "Y": 0.0}}]}, "alpha": {"Points": [{"handle_left": {"X": 0.5, "Y": 1.0}, "interpolation": 0, "co": {"X": 1.0, "Y": 255.0}, "handle_type": 0, "handle_right": {"X": 0.5, "Y": 0.0}}]}, "green": {"Points": [{"handle_left": {"X": 0.5, "Y": 1.0}, "interpolation": 0, "co": {"X": 1.0, "Y": 123.0}, "handle_type": 0, "handle_right": {"X": 0.5, "Y": 0.0}}]}}, "end": 9.04631233215332, "crop_y": {"Points": [{"interpolation": 2, "co": {"X": 1.0, "Y": 0.0}}]}, "title": "carrots.mp4", "scale_y": {"Points": [{"interpolation": 2, "co": {"X": 1.0, "Y": 1.0}}]}, "scale": 1, "channel_mapping": {"Points": [{"interpolation": 2, "co": {"X": 1.0, "Y": -1.0}}]}, "id": "YOLSWL6ZM3", "file_id": "8ZZJTFQ0JR", "position": 46.654999999999994, "perspective_c2_x": {"Points": [{"interpolation": 2, "co": {"X": 1.0, "Y": -1.0}}]}, "scale_x": {"Points": [{"interpolation": 2, "co": {"X": 1.0, "Y": 1.0}}]}, "location_x": {"Points": [{"interpolation": 2, "co": {"X": 1.0, "Y": 0.0}}]}, "perspective_c1_x": {"Points": [{"interpolation": 2, "co": {"X": 1.0, "Y": -1.0}}]}, "layer": 4, "image": "..\\..\\..\\..\\..\\..\\..\\.openshot_qt\\thumbnail\\8ZZJTFQ0JR.png", "has_video": {"Points": [{"interpolation": 2, "co": {"X": 1.0, "Y": -1.0}}]}}, {"alpha": {"Points": [{"interpolation": 2, "co": {"X": 1.0, "Y": 1.0}}, {"interpolation": 0, "handle_left": {"X": 0.5, "Y": 1.0}, "handle_type": 0, "co": {"X": 1.0, "Y": 0.0}, "handle_right": {"X": 0.5, "Y": 0.0}}, {"interpolation": 0, "handle_left": {"X": 0.5, "Y": 1.0}, "handle_type": 0, "co": {"X": 25.0, "Y": 1.0}, "handle_right": {"X": 0.5, "Y": 0.0}}]}, "effects": [], "volume": {"Points": [{"interpolation": 2, "co": {"X": 1.0, "Y": 0.0}}]}, "duration": 13.40485382080078, "reader": {"audio_timebase": {"num": 1, "den": 48000}, "acodec": "aac", "path": "cookies & rice.mp4", "type": "FFmpegReader", "has_audio": true, "pixel_ratio": {"num": 1, "den": 1}, "video_stream_index": 0, "duration": 13.40485382080078, "height": 1080, "top_field_first": true, "video_length": "403", "has_single_image": false, "pixel_format": 12, "display_ratio": {"num": 16, "den": 9}, "vcodec": "h264", "channels": 2, "sample_rate": 48000, "audio_bit_rate": 155912, "video_timebase": {"num": 1, "den": 90000}, "interlaced_frame": false, "channel_layout": 3, "width": 1920, "audio_stream_index": 1, "video_bit_rate": 17368735, "fps": {"num": 2790000, "den": 92981}, "has_video": true, "file_size": "29159935"}, "shear_y": {"Points": [{"interpolation": 2, "co": {"X": 1.0, "Y": 0.0}}]}, "rotation": {"Points": [{"interpolation": 2, "co": {"X": 1.0, "Y": 0.0}}]}, "start": 0, "perspective_c4_x": {"Points": [{"interpolation": 2, "co": {"X": 1.0, "Y": -1.0}}]}, "channel_filter": {"Points": [{"interpolation": 2, "co": {"X": 1.0, "Y": -1.0}}]}, "perspective_c4_y": {"Points": [{"interpolation": 2, "co": {"X": 1.0, "Y": -1.0}}]}, "gravity": 4, "crop_height": {"Points": [{"interpolation": 2, "co": {"X": 1.0, "Y": -1.0}}]}, "shear_x": {"Points": [{"interpolation": 2, "co": {"X": 1.0, "Y": 0.0}}]}, "crop_width": {"Points": [{"interpolation": 2, "co": {"X": 1.0, "Y": -1.0}}]}, "display": 0, "anchor": 0, "crop_x": {"Points": [{"interpolation": 2, "co": {"X": 1.0, "Y": 0.0}}]}, "location_y": {"Points": [{"interpolation": 2, "co": {"X": 1.0, "Y": 0.0}}]}, "time": {"Points": [{"interpolation": 2, "co": {"X": 1.0, "Y": 0.0}}]}, "has_audio": {"Points": [{"interpolation": 2, "co": {"X": 1.0, "Y": -1.0}}]}, "perspective_c3_y": {"Points": [{"interpolation": 2, "co": {"X": 1.0, "Y": -1.0}}]}, "perspective_c3_x": {"Points": [{"interpolation": 2, "co": {"X": 1.0, "Y": -1.0}}]}, "perspective_c1_y": {"Points": [{"interpolation": 2, "co": {"X": 1.0, "Y": -1.0}}]}, "perspective_c2_y": {"Points": [{"interpolation": 2, "co": {"X": 1.0, "Y": -1.0}}]}, "waveform": false, "wave_color": {"blue": {"Points": [{"handle_left": {"X": 0.5, "Y": 1.0}, "interpolation": 0, "co": {"X": 1.0, "Y": 255.0}, "handle_type": 0, "handle_right": {"X": 0.5, "Y": 0.0}}]}, "red": {"Points": [{"handle_left": {"X": 0.5, "Y": 1.0}, "interpolation": 0, "co": {"X": 1.0, "Y": 0.0}, "handle_type": 0, "handle_right": {"X": 0.5, "Y": 0.0}}]}, "alpha": {"Points": [{"handle_left": {"X": 0.5, "Y": 1.0}, "interpolation": 0, "co": {"X": 1.0, "Y": 255.0}, "handle_type": 0, "handle_right": {"X": 0.5, "Y": 0.0}}]}, "green": {"Points": [{"handle_left": {"X": 0.5, "Y": 1.0}, "interpolation": 0, "co": {"X": 1.0, "Y": 123.0}, "handle_type": 0, "handle_right": {"X": 0.5, "Y": 0.0}}]}}, "end": 13.40485382080078, "crop_y": {"Points": [{"interpolation": 2, "co": {"X": 1.0, "Y": 0.0}}]}, "title": "cookies & rice.mp4", "scale_y": {"Points": [{"interpolation": 2, "co": {"X": 1.0, "Y": 1.0}}]}, "scale": 1, "channel_mapping": {"Points": [{"interpolation": 2, "co": {"X": 1.0, "Y": -1.0}}]}, "id": "7XO6NL2134", "file_id": "D4C4J23O2V", "position": 54.23140625, "perspective_c2_x": {"Points": [{"interpolation": 2, "co": {"X": 1.0, "Y": -1.0}}]}, "scale_x": {"Points": [{"interpolation": 2, "co": {"X": 1.0, "Y": 1.0}}]}, "location_x": {"Points": [{"interpolation": 2, "co": {"X": 1.0, "Y": 0.0}}]}, "perspective_c1_x": {"Points": [{"interpolation": 2, "co": {"X": 1.0, "Y": -1.0}}]}, "layer": 3, "image": "..\\..\\..\\..\\..\\..\\..\\.openshot_qt\\thumbnail\\D4C4J23O2V.png", "has_video": {"Points": [{"interpolation": 2, "co": {"X": 1.0, "Y": -1.0}}]}}, {"alpha": {"Points": [{"interpolation": 2, "co": {"X": 1.0, "Y": 1.0}}, {"handle_left": {"X": 0.5, "Y": 1.0}, "interpolation": 0, "co": {"X": 1.0, "Y": 0.0}, "handle_type": 0, "handle_right": {"X": 0.5, "Y": 0.0}}, {"handle_left": {"X": 0.5, "Y": 1.0}, "interpolation": 0, "co": {"X": 73.0, "Y": 1.0}, "handle_type": 0, "handle_right": {"X": 0.5, "Y": 0.0}}]}, "effects": [{"has_audio": false, "iterations": {"Points": [{"interpolation": 2, "co": {"X": 1.0, "Y": 3.0}}]}, "order": 0, "id": "HDUV2FFAT9", "position": 0.0, "class_name": "Blur", "short_name": "", "duration": 0.0, "horizontal_radius": {"Points": [{"interpolation": 2, "co": {"X": 1.0, "Y": 6.0}}]}, "end": 0.0, "layer": 0, "name": "Blur", "start": 0.0, "sigma": {"Points": [{"interpolation": 2, "co": {"X": 1.0, "Y": 3.0}}]}, "type": "Blur", "vertical_radius": {"Points": [{"interpolation": 2, "co": {"X": 1.0, "Y": 6.0}}]}, "has_video": true, "description": "Adjust the blur of the frame's image."}], "volume": {"Points": [{"interpolation": 2, "co": {"X": 1.0, "Y": 0.0}}]}, "duration": 12.82185459136963, "reader": {"audio_timebase": {"num": 1, "den": 48000}, "acodec": "aac", "path": "fruit & meat.mp4", "type": "FFmpegReader", "has_audio": true, "pixel_ratio": {"num": 1, "den": 1}, "video_stream_index": 0, "duration": 12.82185459136963, "height": 1080, "top_field_first": true, "video_length": "385", "has_single_image": false, "pixel_format": 12, "display_ratio": {"num": 16, "den": 9}, "vcodec": "h264", "channels": 2, "sample_rate": 48000, "audio_bit_rate": 155734, "video_timebase": {"num": 1, "den": 90000}, "interlaced_frame": false, "channel_layout": 3, "width": 1920, "audio_stream_index": 1, "video_bit_rate": 17396636, "fps": {"num": 11550000, "den": 384929}, "has_video": true, "file_size": "27902031"}, "shear_y": {"Points": [{"interpolation": 2, "co": {"X": 1.0, "Y": 0.0}}]}, "rotation": {"Points": [{"interpolation": 2, "co": {"X": 1.0, "Y": 0.0}}]}, "start": 0, "perspective_c4_x": {"Points": [{"interpolation": 2, "co": {"X": 1.0, "Y": -1.0}}]}, "channel_filter": {"Points": [{"interpolation": 2, "co": {"X": 1.0, "Y": -1.0}}]}, "perspective_c4_y": {"Points": [{"interpolation": 2, "co": {"X": 1.0, "Y": -1.0}}]}, "gravity": 4, "crop_height": {"Points": [{"interpolation": 2, "co": {"X": 1.0, "Y": -1.0}}]}, "shear_x": {"Points": [{"interpolation": 2, "co": {"X": 1.0, "Y": 0.0}}]}, "crop_width": {"Points": [{"interpolation": 2, "co": {"X": 1.0, "Y": -1.0}}]}, "display": 0, "anchor": 0, "crop_x": {"Points": [{"interpolation": 2, "co": {"X": 1.0, "Y": 0.0}}]}, "location_y": {"Points": [{"interpolation": 2, "co": {"X": 1.0, "Y": 0.0}}]}, "time": {"Points": [{"interpolation": 2, "co": {"X": 1.0, "Y": 0.0}}]}, "has_audio": {"Points": [{"interpolation": 2, "co": {"X": 1.0, "Y": -1.0}}]}, "perspective_c3_y": {"Points": [{"interpolation": 2, "co": {"X": 1.0, "Y": -1.0}}]}, "perspective_c3_x": {"Points": [{"interpolation": 2, "co": {"X": 1.0, "Y": -1.0}}]}, "perspective_c1_y": {"Points": [{"interpolation": 2, "co": {"X": 1.0, "Y": -1.0}}]}, "perspective_c2_y": {"Points": [{"interpolation": 2, "co": {"X": 1.0, "Y": -1.0}}]}, "waveform": false, "wave_color": {"blue": {"Points": [{"handle_left": {"X": 0.5, "Y": 1.0}, "interpolation": 0, "co": {"X": 1.0, "Y": 255.0}, "handle_type": 0, "handle_right": {"X": 0.5, "Y": 0.0}}]}, "red": {"Points": [{"handle_left": {"X": 0.5, "Y": 1.0}, "interpolation": 0, "co": {"X": 1.0, "Y": 0.0}, "handle_type": 0, "handle_right": {"X": 0.5, "Y": 0.0}}]}, "alpha": {"Points": [{"handle_left": {"X": 0.5, "Y": 1.0}, "interpolation": 0, "co": {"X": 1.0, "Y": 255.0}, "handle_type": 0, "handle_right": {"X": 0.5, "Y": 0.0}}]}, "green": {"Points": [{"handle_left": {"X": 0.5, "Y": 1.0}, "interpolation": 0, "co": {"X": 1.0, "Y": 123.0}, "handle_type": 0, "handle_right": {"X": 0.5, "Y": 0.0}}]}}, "end": 4.698593750000001, "crop_y": {"Points": [{"interpolation": 2, "co": {"X": 1.0, "Y": 0.0}}]}, "title": "fruit & meat.mp4", "scale_y": {"Points": [{"interpolation": 2, "co": {"X": 1.0, "Y": 1.0}}]}, "scale": 1, "channel_mapping": {"Points": [{"interpolation": 2, "co": {"X": 1.0, "Y": -1.0}}]}, "id": "67K7C1AHH6", "file_id": "NCI8RFOFXU", "position": 67.6353125, "perspective_c2_x": {"Points": [{"interpolation": 2, "co": {"X": 1.0, "Y": -1.0}}]}, "scale_x": {"Points": [{"interpolation": 2, "co": {"X": 1.0, "Y": 1.0}}]}, "location_x": {"Points": [{"interpolation": 2, "co": {"X": 1.0, "Y": 0.0}}]}, "perspective_c1_x": {"Points": [{"interpolation": 2, "co": {"X": 1.0, "Y": -1.0}}]}, "layer": 4, "image": "..\\..\\..\\..\\..\\..\\..\\.openshot_qt\\thumbnail\\NCI8RFOFXU.png", "has_video": {"Points": [{"interpolation": 2, "co": {"X": 1.0, "Y": -1.0}}]}}, {"alpha": {"Points": [{"interpolation": 2, "co": {"X": 1.0, "Y": 1.0}}, {"interpolation": 0, "handle_left": {"X": 0.5, "Y": 1.0}, "handle_type": 0, "co": {"X": 1.0, "Y": 0.0}, "handle_right": {"X": 0.5, "Y": 0.0}}, {"interpolation": 0, "handle_left": {"X": 0.5, "Y": 1.0}, "handle_type": 0, "co": {"X": 25.0, "Y": 1.0}, "handle_right": {"X": 0.5, "Y": 0.0}}]}, "effects": [], "volume": {"Points": [{"interpolation": 2, "co": {"X": 1.0, "Y": 0.0}}]}, "duration": 13.19993782043457, "reader": {"audio_timebase": {"num": 1, "den": 48000}, "acodec": "aac", "path": "knicknacks.mp4", "type": "FFmpegReader", "has_audio": true, "pixel_ratio": {"num": 1, "den": 1}, "video_stream_index": 0, "duration": 13.19993782043457, "height": 1080, "top_field_first": true, "video_length": "397", "has_single_image": false, "pixel_format": 12, "display_ratio": {"num": 16, "den": 9}, "vcodec": "h264", "channels": 2, "sample_rate": 48000, "audio_bit_rate": 155559, "video_timebase": {"num": 1, "den": 90000}, "interlaced_frame": false, "channel_layout": 3, "width": 1920, "audio_stream_index": 1, "video_bit_rate": 17465309, "fps": {"num": 35730000, "den": 1190759}, "has_video": true, "file_size": "28885439"}, "shear_y": {"Points": [{"interpolation": 2, "co": {"X": 1.0, "Y": 0.0}}]}, "rotation": {"Points": [{"interpolation": 2, "co": {"X": 1.0, "Y": 0.0}}]}, "start": 0, "perspective_c4_x": {"Points": [{"interpolation": 2, "co": {"X": 1.0, "Y": -1.0}}]}, "channel_filter": {"Points": [{"interpolation": 2, "co": {"X": 1.0, "Y": -1.0}}]}, "perspective_c4_y": {"Points": [{"interpolation": 2, "co": {"X": 1.0, "Y": -1.0}}]}, "gravity": 4, "crop_height": {"Points": [{"interpolation": 2, "co": {"X": 1.0, "Y": -1.0}}]}, "shear_x": {"Points": [{"interpolation": 2, "co": {"X": 1.0, "Y": 0.0}}]}, "crop_width": {"Points": [{"interpolation": 2, "co": {"X": 1.0, "Y": -1.0}}]}, "display": 0, "anchor": 0, "crop_x": {"Points": [{"interpolation": 2, "co": {"X": 1.0, "Y": 0.0}}]}, "location_y": {"Points": [{"interpolation": 2, "co": {"X": 1.0, "Y": 0.0}}]}, "time": {"Points": [{"interpolation": 2, "co": {"X": 1.0, "Y": 0.0}}]}, "has_audio": {"Points": [{"interpolation": 2, "co": {"X": 1.0, "Y": -1.0}}]}, "perspective_c3_y": {"Points": [{"interpolation": 2, "co": {"X": 1.0, "Y": -1.0}}]}, "perspective_c3_x": {"Points": [{"interpolation": 2, "co": {"X": 1.0, "Y": -1.0}}]}, "perspective_c1_y": {"Points": [{"interpolation": 2, "co": {"X": 1.0, "Y": -1.0}}]}, "perspective_c2_y": {"Points": [{"interpolation": 2, "co": {"X": 1.0, "Y": -1.0}}]}, "waveform": false, "wave_color": {"blue": {"Points": [{"handle_left": {"X": 0.5, "Y": 1.0}, "interpolation": 0, "co": {"X": 1.0, "Y": 255.0}, "handle_type": 0, "handle_right": {"X": 0.5, "Y": 0.0}}]}, "red": {"Points": [{"handle_left": {"X": 0.5, "Y": 1.0}, "interpolation": 0, "co": {"X": 1.0, "Y": 0.0}, "handle_type": 0, "handle_right": {"X": 0.5, "Y": 0.0}}]}, "alpha": {"Points": [{"handle_left": {"X": 0.5, "Y": 1.0}, "interpolation": 0, "co": {"X": 1.0, "Y": 255.0}, "handle_type": 0, "handle_right": {"X": 0.5, "Y": 0.0}}]}, "green": {"Points": [{"handle_left": {"X": 0.5, "Y": 1.0}, "interpolation": 0, "co": {"X": 1.0, "Y": 123.0}, "handle_type": 0, "handle_right": {"X": 0.5, "Y": 0.0}}]}}, "end": 13.19993782043457, "crop_y": {"Points": [{"interpolation": 2, "co": {"X": 1.0, "Y": 0.0}}]}, "title": "knicknacks.mp4", "scale_y": {"Points": [{"interpolation": 2, "co": {"X": 1.0, "Y": 1.0}}]}, "scale": 1, "channel_mapping": {"Points": [{"interpolation": 2, "co": {"X": 1.0, "Y": -1.0}}]}, "id": "KRBYHIF358", "file_id": "UEDNUOEYDN", "position": 77.0284375, "perspective_c2_x": {"Points": [{"interpolation": 2, "co": {"X": 1.0, "Y": -1.0}}]}, "scale_x": {"Points": [{"interpolation": 2, "co": {"X": 1.0, "Y": 1.0}}]}, "location_x": {"Points": [{"interpolation": 2, "co": {"X": 1.0, "Y": 0.0}}]}, "perspective_c1_x": {"Points": [{"interpolation": 2, "co": {"X": 1.0, "Y": -1.0}}]}, "layer": 3, "image": "..\\..\\..\\..\\..\\..\\..\\.openshot_qt\\thumbnail\\UEDNUOEYDN.png", "has_video": {"Points": [{"interpolation": 2, "co": {"X": 1.0, "Y": -1.0}}]}}, {"alpha": {"Points": [{"interpolation": 2, "co": {"X": 1.0, "Y": 1.0}}]}, "effects": [], "volume": {"Points": [{"interpolation": 2, "co": {"X": 1.0, "Y": 1.0}}]}, "duration": 86400.0, "reader": {"audio_timebase": {"num": 1, "den": 1}, "acodec": "", "path": "assets\\TitleFileName-1.svg", "type": "QtImageReader", "has_audio": false, "pixel_ratio": {"num": 1, "den": 1}, "video_stream_index": -1, "duration": 86400.0, "height": 1080, "top_field_first": true, "video_length": "2592000", "has_single_image": true, "pixel_format": -1, "display_ratio": {"num": 16, "den": 9}, "vcodec": "", "channels": 0, "sample_rate": 0, "audio_bit_rate": 0, "video_timebase": {"num": 1, "den": 30}, "interlaced_frame": false, "channel_layout": 4, "width": 1920, "audio_stream_index": -1, "video_bit_rate": 0, "fps": {"num": 30, "den": 1}, "has_video": true, "file_size": "8294400"}, "shear_y": {"Points": [{"interpolation": 2, "co": {"X": 1.0, "Y": 0.0}}]}, "rotation": {"Points": [{"interpolation": 2, "co": {"X": 1.0, "Y": 0.0}}]}, "start": 0, "perspective_c4_x": {"Points": [{"interpolation": 2, "co": {"X": 1.0, "Y": -1.0}}]}, "channel_filter": {"Points": [{"interpolation": 2, "co": {"X": 1.0, "Y": -1.0}}]}, "perspective_c4_y": {"Points": [{"interpolation": 2, "co": {"X": 1.0, "Y": -1.0}}]}, "gravity": 4, "crop_height": {"Points": [{"interpolation": 2, "co": {"X": 1.0, "Y": -1.0}}]}, "shear_x": {"Points": [{"interpolation": 2, "co": {"X": 1.0, "Y": 0.0}}]}, "crop_width": {"Points": [{"interpolation": 2, "co": {"X": 1.0, "Y": -1.0}}]}, "display": 0, "anchor": 0, "crop_x": {"Points": [{"interpolation": 2, "co": {"X": 1.0, "Y": 0.0}}]}, "location_y": {"Points": [{"interpolation": 2, "co": {"X": 1.0, "Y": 0.0}}]}, "time": {"Points": [{"interpolation": 2, "co": {"X": 1.0, "Y": 0.0}}]}, "has_audio": {"Points": [{"interpolation": 2, "co": {"X": 1.0, "Y": -1.0}}]}, "perspective_c3_y": {"Points": [{"interpolation": 2, "co": {"X": 1.0, "Y": -1.0}}]}, "perspective_c3_x": {"Points": [{"interpolation": 2, "co": {"X": 1.0, "Y": -1.0}}]}, "perspective_c1_y": {"Points": [{"interpolation": 2, "co": {"X": 1.0, "Y": -1.0}}]}, "perspective_c2_y": {"Points": [{"interpolation": 2, "co": {"X": 1.0, "Y": -1.0}}]}, "waveform": false, "wave_color": {"blue": {"Points": [{"handle_left": {"X": 0.5, "Y": 1.0}, "interpolation": 0, "co": {"X": 1.0, "Y": 255.0}, "handle_type": 0, "handle_right": {"X": 0.5, "Y": 0.0}}]}, "red": {"Points": [{"handle_left": {"X": 0.5, "Y": 1.0}, "interpolation": 0, "co": {"X": 1.0, "Y": 0.0}, "handle_type": 0, "handle_right": {"X": 0.5, "Y": 0.0}}]}, "alpha": {"Points": [{"handle_left": {"X": 0.5, "Y": 1.0}, "interpolation": 0, "co": {"X": 1.0, "Y": 255.0}, "handle_type": 0, "handle_right": {"X": 0.5, "Y": 0.0}}]}, "green": {"Points": [{"handle_left": {"X": 0.5, "Y": 1.0}, "interpolation": 0, "co": {"X": 1.0, "Y": 123.0}, "handle_type": 0, "handle_right": {"X": 0.5, "Y": 0.0}}]}}, "end": 10, "crop_y": {"Points": [{"interpolation": 2, "co": {"X": 1.0, "Y": 0.0}}]}, "title": "TitleFileName-1.svg", "scale_y": {"Points": [{"interpolation": 2, "co": {"X": 1.0, "Y": 1.0}}]}, "scale": 1, "channel_mapping": {"Points": [{"interpolation": 2, "co": {"X": 1.0, "Y": -1.0}}]}, "id": "DODIHO59XS", "file_id": "HKDPZNKEW2", "position": 0.30953125, "perspective_c2_x": {"Points": [{"interpolation": 2, "co": {"X": 1.0, "Y": -1.0}}]}, "scale_x": {"Points": [{"interpolation": 2, "co": {"X": 1.0, "Y": 1.0}}]}, "location_x": {"Points": [{"interpolation": 2, "co": {"X": 1.0, "Y": 0.0}}]}, "perspective_c1_x": {"Points": [{"interpolation": 2, "co": {"X": 1.0, "Y": -1.0}}]}, "layer": 4, "image": "..\\..\\..\\..\\..\\..\\..\\.openshot_qt\\thumbnail\\HKDPZNKEW2.png", "has_video": {"Points": [{"interpolation": 2, "co": {"X": 1.0, "Y": -1.0}}]}}, {"alpha": {"Points": [{"interpolation": 2, "co": {"X": 1.0, "Y": 1.0}}, {"handle_left": {"X": 0.5, "Y": 1.0}, "interpolation": 0, "co": {"X": 1.0, "Y": 0.0}, "handle_type": 0, "handle_right": {"X": 0.5, "Y": 0.0}}, {"handle_left": {"X": 0.5, "Y": 1.0}, "interpolation": 0, "co": {"X": 25.0, "Y": 1.0}, "handle_type": 0, "handle_right": {"X": 0.5, "Y": 0.0}}, {"interpolation": 0, "handle_left": {"X": 0.5, "Y": 1.0}, "handle_type": 0, "co": {"X": 1.0, "Y": 0.0}, "handle_right": {"X": 0.5, "Y": 0.0}}, {"interpolation": 0, "handle_left": {"X": 0.5, "Y": 1.0}, "handle_type": 0, "co": {"X": 73.0, "Y": 1.0}, "handle_right": {"X": 0.5, "Y": 0.0}}]}, "effects": [], "volume": {"Points": [{"interpolation": 2, "co": {"X": 1.0, "Y": 1.0}}]}, "duration": 86400.0, "reader": {"audio_timebase": {"num": 1, "den": 1}, "acodec": "", "path": "assets\\TitleFileName-2.svg", "type": "QtImageReader", "has_audio": false, "pixel_ratio": {"num": 1, "den": 1}, "video_stream_index": -1, "duration": 86400.0, "height": 1080, "top_field_first": true, "video_length": "2592000", "has_single_image": true, "pixel_format": -1, "display_ratio": {"num": 16, "den": 9}, "vcodec": "", "channels": 0, "sample_rate": 0, "audio_bit_rate": 0, "video_timebase": {"num": 1, "den": 30}, "interlaced_frame": false, "channel_layout": 4, "width": 1920, "audio_stream_index": -1, "video_bit_rate": 0, "fps": {"num": 30, "den": 1}, "has_video": true, "file_size": "8294400"}, "shear_y": {"Points": [{"interpolation": 2, "co": {"X": 1.0, "Y": 0.0}}]}, "rotation": {"Points": [{"interpolation": 2, "co": {"X": 1.0, "Y": 0.0}}]}, "start": 0, "perspective_c4_x": {"Points": [{"interpolation": 2, "co": {"X": 1.0, "Y": -1.0}}]}, "channel_filter": {"Points": [{"interpolation": 2, "co": {"X": 1.0, "Y": -1.0}}]}, "perspective_c4_y": {"Points": [{"interpolation": 2, "co": {"X": 1.0, "Y": -1.0}}]}, "gravity": 4, "crop_height": {"Points": [{"interpolation": 2, "co": {"X": 1.0, "Y": -1.0}}]}, "shear_x": {"Points": [{"interpolation": 2, "co": {"X": 1.0, "Y": 0.0}}]}, "crop_width": {"Points": [{"interpolation": 2, "co": {"X": 1.0, "Y": -1.0}}]}, "display": 0, "anchor": 0, "crop_x": {"Points": [{"interpolation": 2, "co": {"X": 1.0, "Y": 0.0}}]}, "location_y": {"Points": [{"interpolation": 2, "co": {"X": 1.0, "Y": 0.0}}]}, "time": {"Points": [{"interpolation": 2, "co": {"X": 1.0, "Y": 0.0}}]}, "has_audio": {"Points": [{"interpolation": 2, "co": {"X": 1.0, "Y": -1.0}}]}, "perspective_c3_y": {"Points": [{"interpolation": 2, "co": {"X": 1.0, "Y": -1.0}}]}, "perspective_c3_x": {"Points": [{"interpolation": 2, "co": {"X": 1.0, "Y": -1.0}}]}, "perspective_c1_y": {"Points": [{"interpolation": 2, "co": {"X": 1.0, "Y": -1.0}}]}, "perspective_c2_y": {"Points": [{"interpolation": 2, "co": {"X": 1.0, "Y": -1.0}}]}, "waveform": false, "wave_color": {"blue": {"Points": [{"handle_left": {"X": 0.5, "Y": 1.0}, "interpolation": 0, "co": {"X": 1.0, "Y": 255.0}, "handle_type": 0, "handle_right": {"X": 0.5, "Y": 0.0}}]}, "red": {"Points": [{"handle_left": {"X": 0.5, "Y": 1.0}, "interpolation": 0, "co": {"X": 1.0, "Y": 0.0}, "handle_type": 0, "handle_right": {"X": 0.5, "Y": 0.0}}]}, "alpha": {"Points": [{"handle_left": {"X": 0.5, "Y": 1.0}, "interpolation": 0, "co": {"X": 1.0, "Y": 255.0}, "handle_type": 0, "handle_right": {"X": 0.5, "Y": 0.0}}]}, "green": {"Points": [{"handle_left": {"X": 0.5, "Y": 1.0}, "interpolation": 0, "co": {"X": 1.0, "Y": 123.0}, "handle_type": 0, "handle_right": {"X": 0.5, "Y": 0.0}}]}}, "end": 10, "crop_y": {"Points": [{"interpolation": 2, "co": {"X": 1.0, "Y": 0.0}}]}, "title": "TitleFileName-2.svg", "scale_y": {"Points": [{"interpolation": 2, "co": {"X": 1.0, "Y": 1.0}}]}, "scale": 1, "channel_mapping": {"Points": [{"interpolation": 2, "co": {"X": 1.0, "Y": -1.0}}]}, "id": "41G5R9213B", "file_id": "VSVBXAYUOF", "position": 90.2278125, "perspective_c2_x": {"Points": [{"interpolation": 2, "co": {"X": 1.0, "Y": -1.0}}]}, "scale_x": {"Points": [{"interpolation": 2, "co": {"X": 1.0, "Y": 1.0}}]}, "location_x": {"Points": [{"interpolation": 2, "co": {"X": 1.0, "Y": 0.0}}]}, "perspective_c1_x": {"Points": [{"interpolation": 2, "co": {"X": 1.0, "Y": -1.0}}]}, "layer": 4, "image": "..\\..\\..\\..\\..\\..\\..\\.openshot_qt\\thumbnail\\VSVBXAYUOF.png", "has_video": {"Points": [{"interpolation": 2, "co": {"X": 1.0, "Y": -1.0}}]}}, {"alpha": {"Points": [{"handle_left": {"X": 0.5, "Y": 1.0}, "interpolation": 0, "co": {"X": 1.0, "Y": 1.0}, "handle_type": 0, "handle_right": {"X": 0.5, "Y": 0.0}}]}, "effects": [{"has_audio": false, "iterations": {"Points": [{"interpolation": 2, "co": {"X": 1.0, "Y": 3.0}}]}, "order": 0, "id": "WHCDE78U5Q", "position": 0.0, "class_name": "Blur", "short_name": "", "duration": 0.0, "horizontal_radius": {"Points": [{"interpolation": 2, "co": {"X": 1.0, "Y": 6.0}}]}, "end": 0.0, "layer": 0, "name": "Blur", "start": 0.0, "sigma": {"Points": [{"interpolation": 2, "co": {"X": 1.0, "Y": 3.0}}]}, "type": "Blur", "vertical_radius": {"Points": [{"interpolation": 2, "co": {"X": 1.0, "Y": 6.0}}]}, "has_video": true, "description": "Adjust the blur of the frame's image."}], "volume": {"Points": [{"interpolation": 2, "co": {"X": 1.0, "Y": 1.0}}, {"interpolation": 1, "co": {"X": 247, "Y": 0.0}}, {"interpolation": 1, "co": {"X": 172, "Y": 0.0}}]}, "duration": 12.82185459136963, "reader": {"audio_timebase": {"num": 1, "den": 48000}, "acodec": "aac", "path": "fruit & meat.mp4", "type": "FFmpegReader", "has_audio": true, "pixel_ratio": {"num": 1, "den": 1}, "video_stream_index": 0, "duration": 12.82185459136963, "height": 1080, "top_field_first": true, "video_length": "385", "has_single_image": false, "pixel_format": 12, "display_ratio": {"num": 16, "den": 9}, "vcodec": "h264", "channels": 2, "sample_rate": 48000, "audio_bit_rate": 155734, "video_timebase": {"num": 1, "den": 90000}, "interlaced_frame": false, "channel_layout": 3, "width": 1920, "audio_stream_index": 1, "video_bit_rate": 17396636, "fps": {"num": 11550000, "den": 384929}, "has_video": true, "file_size": "27902031"}, "shear_y": {"Points": [{"interpolation": 2, "co": {"X": 1.0, "Y": 0.0}}]}, "rotation": {"Points": [{"interpolation": 2, "co": {"X": 1.0, "Y": 0.0}}]}, "start": 7.114687500000002, "perspective_c4_x": {"Points": [{"interpolation": 2, "co": {"X": 1.0, "Y": -1.0}}]}, "channel_filter": {"Points": [{"interpolation": 2, "co": {"X": 1.0, "Y": -1.0}}]}, "perspective_c4_y": {"Points": [{"interpolation": 2, "co": {"X": 1.0, "Y": -1.0}}]}, "gravity": 4, "crop_height": {"Points": [{"interpolation": 2, "co": {"X": 1.0, "Y": -1.0}}]}, "shear_x": {"Points": [{"interpolation": 2, "co": {"X": 1.0, "Y": 0.0}}]}, "crop_width": {"Points": [{"interpolation": 2, "co": {"X": 1.0, "Y": -1.0}}]}, "display": 0, "anchor": 0, "crop_x": {"Points": [{"interpolation": 2, "co": {"X": 1.0, "Y": 0.0}}]}, "location_y": {"Points": [{"interpolation": 2, "co": {"X": 1.0, "Y": 0.0}}]}, "time": {"Points": [{"interpolation": 2, "co": {"X": 1.0, "Y": 0.0}}]}, "has_audio": {"Points": [{"interpolation": 2, "co": {"X": 1.0, "Y": -1.0}}]}, "perspective_c3_y": {"Points": [{"interpolation": 2, "co": {"X": 1.0, "Y": -1.0}}]}, "perspective_c3_x": {"Points": [{"interpolation": 2, "co": {"X": 1.0, "Y": -1.0}}]}, "perspective_c1_y": {"Points": [{"interpolation": 2, "co": {"X": 1.0, "Y": -1.0}}]}, "perspective_c2_y": {"Points": [{"interpolation": 2, "co": {"X": 1.0, "Y": -1.0}}]}, "waveform": false, "wave_color": {"blue": {"Points": [{"handle_left": {"X": 0.5, "Y": 1.0}, "interpolation": 0, "co": {"X": 1.0, "Y": 255.0}, "handle_type": 0, "handle_right": {"X": 0.5, "Y": 0.0}}]}, "red": {"Points": [{"handle_left": {"X": 0.5, "Y": 1.0}, "interpolation": 0, "co": {"X": 1.0, "Y": 0.0}, "handle_type": 0, "handle_right": {"X": 0.5, "Y": 0.0}}]}, "alpha": {"Points": [{"handle_left": {"X": 0.5, "Y": 1.0}, "interpolation": 0, "co": {"X": 1.0, "Y": 255.0}, "handle_type": 0, "handle_right": {"X": 0.5, "Y": 0.0}}]}, "green": {"Points": [{"handle_left": {"X": 0.5, "Y": 1.0}, "interpolation": 0, "co": {"X": 1.0, "Y": 123.0}, "handle_type": 0, "handle_right": {"X": 0.5, "Y": 0.0}}]}}, "end": 12.82185459136963, "crop_y": {"Points": [{"interpolation": 2, "co": {"X": 1.0, "Y": 0.0}}]}, "title": "fruit & meat.mp4", "scale_y": {"Points": [{"interpolation": 2, "co": {"X": 1.0, "Y": 1.0}}]}, "scale": 1, "channel_mapping": {"Points": [{"interpolation": 2, "co": {"X": 1.0, "Y": -1.0}}]}, "id": "G96T2QDSNK", "file_id": "NCI8RFOFXU", "position": 72.33296874999999, "perspective_c2_x": {"Points": [{"interpolation": 2, "co": {"X": 1.0, "Y": -1.0}}]}, "scale_x": {"Points": [{"interpolation": 2, "co": {"X": 1.0, "Y": 1.0}}]}, "location_x": {"Points": [{"interpolation": 2, "co": {"X": 1.0, "Y": 0.0}}]}, "perspective_c1_x": {"Points": [{"interpolation": 2, "co": {"X": 1.0, "Y": -1.0}}]}, "layer": 2, "image": "..\\..\\..\\..\\..\\..\\..\\.openshot_qt\\thumbnail\\G96T2QDSNK-214.png", "has_video": {"Points": [{"interpolation": 2, "co": {"X": 1.0, "Y": -1.0}}]}}], "width": 1280, "profile": "HDV 720 24p", "fps": {"num": 24, "den": 1}, "tick_pixels": 100, "version": {"libopenshot": "0.1.4", "openshot-qt": "2.3.1"}, "markers": [], "height": 720}